HIERARCHY
ROOT root     
{
	OFFSET 0.0000 0.0000 0.0000
	CHANNELS 6 Xposition Yposition Zposition Zrotation Yrotation Xrotation
	JOINT pelvis   
	{
		OFFSET 0.0000 0.0000 0.0000
		CHANNELS 3 Zrotation Yrotation Xrotation
		JOINT thorax   
		{
			OFFSET 0.0000 23.0750 -5.0000
			CHANNELS 3 Zrotation Yrotation Xrotation
			JOINT rclavicle
			{
				OFFSET 0.0000 28.0009 0.0000
				CHANNELS 3 Zrotation Yrotation Xrotation
				JOINT rhumerus 
				{
					OFFSET -18.5725 5.5939 0.0000
					CHANNELS 3 Zrotation Yrotation Xrotation
					JOINT rradius  
					{
						OFFSET -24.8459 0.0000 0.0000
						CHANNELS 3 Zrotation Yrotation Xrotation
						JOINT rhand    
						{
							OFFSET -24.5477 0.0000 0.0000
							CHANNELS 3 Zrotation Yrotation Xrotation
							End Site
							{
								OFFSET -8.1826 0.0000 0.0000
							}
						}
					}
				}
			}
			JOINT lclavicle
			{
				OFFSET 0.0000 28.0009 0.0000
				CHANNELS 3 Zrotation Yrotation Xrotation
				JOINT lhumerus 
				{
					OFFSET 18.5725 5.5939 0.0000
					CHANNELS 3 Zrotation Yrotation Xrotation
					JOINT lradius  
					{
						OFFSET 24.8459 0.0000 0.0000
						CHANNELS 3 Zrotation Yrotation Xrotation
						JOINT lhand    
						{
							OFFSET 24.5477 0.0000 0.0000
							CHANNELS 3 Zrotation Yrotation Xrotation
							End Site
							{
								OFFSET 8.1826 0.0000 0.0000
							}
						}
					}
				}
			}
			JOINT head     
			{
				OFFSET 0.0000 35.2030 0.0000
				CHANNELS 3 Zrotation Yrotation Xrotation
				End Site
				{
					OFFSET 0.0000 11.7343 0.0000
				}
			}
		}
		JOINT rfemur   
		{
			OFFSET -8.2817 0.0000 0.0000
			CHANNELS 3 Zrotation Yrotation Xrotation
			JOINT rtibia   
			{
				OFFSET 0.0000 -43.3627 0.0000
				CHANNELS 3 Zrotation Yrotation Xrotation
				JOINT rfoot    
				{
					OFFSET 0.0000 -38.2947 0.0000
					CHANNELS 3 Zrotation Yrotation Xrotation
					JOINT rtoes    
					{
						OFFSET 0.0000 0.0000 16.6054
						CHANNELS 3 Zrotation Yrotation Xrotation
						End Site
						{
							OFFSET 0.0000 0.0000 5.5351
						}
					}
				}
			}
		}
		JOINT lfemur   
		{
			OFFSET 8.2817 0.0000 0.0000
			CHANNELS 3 Zrotation Yrotation Xrotation
			JOINT ltibia   
			{
				OFFSET 0.0000 -43.3627 0.0000
				CHANNELS 3 Zrotation Yrotation Xrotation
				JOINT lfoot    
				{
					OFFSET 0.0000 -38.2947 0.0000
					CHANNELS 3 Zrotation Yrotation Xrotation
					JOINT ltoes    
					{
						OFFSET 0.0000 0.0000 16.6054
						CHANNELS 3 Zrotation Yrotation Xrotation
						End Site
						{
							OFFSET 0.0000 0.0000 5.5351
						}
					}
				}
			}
		}
	}
}
MOTION
Frames: 23
Frame Time: .0333333
-18.553 76.761 -3.4956 -43.6656 82.9953 -20.1642 0 -0 0 -2.89504 -6.3709 18.2491 28.1115 -10.1746 3.84494e-05 52.758 -10.8616 3.42336 0 55.6005 0 -3.07722 7.59747 -0.204402 -17.8303 11.0623 -1.66571e-05 -48.8159 -15.6483 -6.80528 -180 -86.8821 180 2.85923 3.53047 0.0881009 3.74201 3.87403 -20.7431 13.0744 -6.88326 -66.3033 -0 -0 61.5597 5.34925e-07 -7.51116 -5.57327 0.733598 6.28878e-07 -31.171 -1.56226 13.296 -38.8615 -0 -0 65.26 6.3026e-05 14.2823 -19.4374 -4.84226 -1.8667e-06 -46.6631 
-17.466 76.855 -3.3464 -42.9005 83.1547 -19.3965 0 -0 0 -2.76768 -6.78923 18.2078 28.0901 -10.6356 1.01204e-05 52.5901 -11.6388 3.41328 -0 56.532 -0 -2.93885 7.4641 -0.191704 -17.6981 11.1759 9.52564e-05 -48.4066 -15.6233 -7.14219 -180 -85.7052 180 2.76132 3.54614 0.0854994 3.81254 3.79981 -20.9489 13.3328 -6.95318 -66.8346 -0 -0 59.1777 2.3029e-06 -6.87835 -4.9452 0.595794 4.68508e-06 -33.2843 -1.46924 13.4567 -37.8027 -0 -0 64.6993 -1.82741e-05 13.8878 -19.1127 -4.62819 2.62059e-05 -47.9406 
-16.364 76.936 -3.1898 -42.1225 83.314 -18.6175 0 -0 0 -2.62679 -7.20685 18.1568 28.041 -11.1125 -3.02488e-05 52.4446 -12.3488 3.42914 -0 57.4609 -0 -2.76819 7.32982 -0.177305 -17.5839 11.3167 -3.47092e-06 -48.0253 -15.5498 -7.46982 -180 -84.5602 180 2.66191 3.56423 0.0828005 3.86564 3.73491 -21.1629 13.5705 -6.99957 -67.2711 -0 -0 56.7852 -5.95383e-06 -6.27285 -4.35999 0.478804 4.25112e-06 -35.7602 -1.36288 13.625 -36.7365 -0 -0 64.1379 -4.01085e-05 13.5025 -18.8019 -4.42525 5.47117e-05 -49.2412 
-15.244 77.002 -3.0257 -41.3379 83.452 -17.8339 0 -0 0 -2.472 -7.62171 18.0995 27.9668 -11.5766 -2.32583e-05 52.3332 -13.0247 3.42435 0 58.3954 0 -2.5385 7.19096 -0.1595 -17.4789 11.4723 -1.15548e-05 -47.6809 -15.4142 -7.78846 -180 -83.4477 180 2.55548 3.57791 0.0798003 3.90197 3.68084 -21.378 13.7765 -7.01837 -67.6007 -0 -0 54.4022 -1.98843e-06 -5.72116 -3.82055 0.382499 2.70092e-06 -38.5013 -1.2395 13.8014 -35.6549 -0 -0 63.5765 -1.13327e-05 13.1306 -18.4944 -4.23194 -8.56423e-05 -50.5854 
-14.104 77.05 -2.854 -40.541 83.5902 -17.0555 0 -0 0 -2.30481 -8.03352 18.0436 27.866 -12.034 -0.000142994 52.2551 -13.6531 3.41278 -0 59.3143 -0 -2.26545 7.05665 -0.139702 -17.385 11.6448 6.3663e-05 -47.3734 -15.2238 -8.09125 180 -82.3821 180 2.44059 3.58774 0.0764989 3.92444 3.63803 -21.589 13.9396 -7.01163 -67.8116 -0 -0 52.0508 2.71472e-06 -5.24073 -3.32439 0.304799 2.08385e-07 -41.3314 -1.09566 13.9812 -34.548 -0 -0 63.02 0.000148926 12.7709 -18.177 -4.0448 2.99577e-05 -51.9832 
-12.939 77.078 -2.675 -39.7089 83.7233 -16.2639 0 -0 0 -2.1305 -8.44199 17.993 27.7401 -12.4795 4.63591e-07 52.2134 -14.2368 3.39057 4.31055e-07 60.2127 7.43408e-07 -1.95929 6.9338 -0.1187 -17.2993 11.831 4.15516e-05 -47.1044 -14.9795 -8.37081 -180 -81.3561 180 2.31709 3.59435 0.0726994 3.93702 3.60565 -21.786 14.0456 -6.98273 -67.8963 -0 -0 49.7608 5.52094e-06 -4.84147 -2.85753 0.241894 -2.17919e-06 -44.0471 -0.931085 14.1614 -33.405 -0 -0 62.4716 -6.19184e-05 12.4229 -17.8333 -3.85929 -2.70287e-05 -53.4445 
-11.749 77.083 -2.4902 -38.8048 83.856 -15.4207 0 -0 0 -1.95787 -8.85086 17.9428 27.5908 -12.9135 -1.24033e-06 52.2037 -14.7815 3.36371 4.48585e-07 61.0815 7.60312e-07 -1.64163 6.83174 -0.0980028 -17.2184 12.0267 -9.60746e-08 -46.8683 -14.6772 -8.62074 -180 -80.3852 180 2.18706 3.60165 0.0688015 3.94563 3.58142 -21.9571 14.0808 -6.93969 -67.8611 -0 -0 47.577 -8.63857e-07 -4.5245 -2.39278 0.189301 -8.49066e-07 -46.4823 -0.74987 14.3279 -32.2256 -0 -0 61.9348 8.79127e-05 12.0793 -17.4441 -3.67081 -8.7949e-06 -54.967 
-10.527 77.062 -2.2995 -37.8021 83.9894 -14.528 0 -0 0 -1.79262 -9.24948 17.9185 27.4249 -13.3222 0.000124781 52.2396 -15.3056 3.28868 4.66922e-07 61.9356 7.78068e-07 -1.29359 6.73698 -0.0760991 -17.1306 12.2328 -5.18491e-06 -46.6853 -14.3323 -8.82897 -180 -79.4731 180 2.0464 3.59935 0.0643006 3.9524 3.55965 -22.1047 14.0296 -6.88332 -67.689 -0 -0 45.5439 1.24453e-06 -4.28534 -1.89518 0.141996 -9.04139e-07 -48.5928 -0.545885 14.4908 -30.9768 -0 -0 61.4093 -5.27874e-05 11.7262 -17.0005 -3.4729 5.2122e-05 -56.5521 
-9.2751 77.013 -2.1053 -36.6315 84.1382 -13.5013 0 -0 0 -1.64442 -9.64711 17.8987 27.2442 -13.7219 9.419e-06 52.3037 -15.7932 3.21393 4.8549e-07 62.7525 7.9609e-07 -0.967296 6.67092 -0.0564 -17.0431 12.4412 6.3294e-05 -46.5356 -13.9372 -8.99054 -180 -78.6236 180 1.90076 3.60045 0.0596996 3.96316 3.53798 -22.2148 13.8836 -6.82561 -67.4113 -0 -0 43.7188 -1.92703e-06 -4.10857 -1.32717 0.0953003 -1.32388e-07 -50.318 -0.329561 14.6303 -29.6787 -0 -0 60.9004 -5.00722e-05 11.3572 -16.4896 -3.26301 5.92152e-05 -58.1856 
-7.9932 76.935 -1.9081 -35.2703 84.309 -12.3178 0 -0 0 -1.5132 -10.0437 17.8766 27.049 -14.1081 -3.49399e-05 52.396 -16.2554 3.13362 0 63.534 0 -0.671099 6.63307 -0.0389002 -16.9511 12.6483 -1.24958e-05 -46.4194 -13.4875 -9.10163 -180 -77.8385 180 1.74995 3.60569 0.0550982 3.97901 3.51153 -22.2845 13.6384 -6.7657 -67.0551 -0 -0 42.1606 -3.93862e-07 -3.97696 -0.659798 0.0459001 -2.03904e-07 -51.658 -0.101595 14.7436 -28.3372 -0 -0 60.4152 -2.4446e-05 10.9599 -15.9097 -3.03872 5.11949e-05 -59.8623 
-6.6784 76.827 -1.7094 -33.6401 84.4858 -10.9112 0 -0 0 -1.40677 -10.4298 17.8728 26.8522 -14.4739 4.13983e-05 52.5136 -16.6988 3.02457 5.23762e-07 64.2978 8.33371e-07 -0.391901 6.60844 -0.0225999 -16.8495 12.8576 4.73149e-05 -46.3457 -13.0053 -9.15021 -180 -77.1231 180 1.59248 3.60955 0.0501999 3.99956 3.47477 -22.3177 13.2932 -6.71042 -66.6248 -0 -0 40.9299 -1.93477e-07 -3.862 0.123004 -0.00829993 3.87457e-08 -52.726 0.138761 14.8339 -26.9314 -0 -0 59.9509 6.87569e-05 10.5211 -15.2649 -2.79946 -2.84714e-05 -61.5646 
-5.3323 76.688 -1.5109 -31.6646 84.6705 -9.20631 0 -0 0 -1.32949 -10.8023 17.889 26.6576 -14.823 0.000109775 52.6475 -17.119 2.89325 0 65.0439 0 -0.1361 6.59342 -0.00779996 -16.7389 13.0738 6.38808e-05 -46.31 -12.5013 -9.13116 180 -76.4978 180 1.42858 3.61375 0.0450997 4.02403 3.42492 -22.321 12.8555 -6.66374 -66.1548 -0 -0 40.0878 -5.97145e-10 -3.73098 1.0086 -0.0658001 4.45555e-07 -53.4693 0.387791 14.8974 -25.4669 -0 -0 59.5092 -8.6483e-05 10.034 -14.5667 -2.54797 2.55402e-05 -63.2843 
-3.9641 76.522 -1.3108 -29.4447 84.8631 -7.27697 0 -0 0 -1.25809 -11.1681 17.8905 26.4644 -15.1555 -1.62943e-05 52.7845 -17.5162 2.76076 -8.73389e-07 65.7646 -5.64648e-07 0.0765004 6.59492 0.00440002 -16.6307 13.2747 0.000123974 -46.2993 -11.9475 -9.05707 -180 -75.9318 180 1.25795 3.62538 0.0398013 4.04558 3.36053 -22.2904 12.3484 -6.61954 -65.6943 -0 -0 39.6702 2.8024e-06 -3.56617 1.97293 -0.1229 1.81742e-08 -53.7942 0.651331 14.9287 -23.9884 -0 -0 59.1085 3.78872e-05 9.49674 -13.8225 -2.28886 2.10848e-05 -65.0176 
-2.5764 76.329 -1.109 -27.0112 85.0545 -5.15238 0 -0 0 -1.18539 -11.5215 17.8848 26.2807 -15.4656 0.000118695 52.9144 -17.8875 2.61846 8.28973e-07 66.4731 1.26503e-06 0.259503 6.59941 0.0150002 -16.5265 13.4689 1.48657e-05 -46.3133 -11.3608 -8.92221 -180 -75.4416 180 1.0792 3.6416 0.0343001 4.05838 3.28013 -22.2376 11.7953 -6.58104 -65.2666 -0 -0 39.705 4.288e-07 -3.3417 2.96001 -0.172801 -1.20178e-06 -53.5688 0.93425 14.9274 -22.5026 -0 -0 58.7544 -1.45875e-05 8.90955 -13.0508 -2.02743 -9.65457e-06 -66.7639 
-1.1745 76.114 -0.9046 -24.4287 85.2494 -2.89389 0 -0 0 -1.09761 -11.8618 17.87 26.1118 -15.7523 2.91062e-05 53.0269 -18.2236 2.47071 0 67.169 0 0.416006 6.60072 0.0240003 -16.434 13.6515 -4.61525e-05 -46.3517 -10.7434 -8.73421 -180 -75.0165 180 0.891199 3.6624 0.0284999 4.05607 3.18416 -22.1695 11.2252 -6.54925 -64.8937 -0 -0 40.2049 -2.12858e-06 -3.04165 3.89263 -0.206702 1.36593e-07 -52.5826 1.24222 14.8912 -21.027 -0 -0 58.4592 -1.45884e-05 8.28022 -12.2581 -1.76979 2.98761e-05 -68.5304 
0.2371 75.88 -0.6973 -21.783 85.4244 -0.577664 0 -0 0 -0.985087 -12.1849 17.849 25.962 -16.0099 5.45886e-05 53.1122 -18.516 2.32082 0 67.8484 0 0.549106 6.59439 0.0316005 -16.3566 13.8169 3.53835e-05 -46.4073 -10.093 -8.50341 -180 -74.6594 180 0.69321 3.68754 0.0223001 4.03352 3.07466 -22.0973 10.6692 -6.53211 -64.5922 -0 -0 41.1571 1.99259e-07 -2.65731 4.67547 -0.216803 -1.41147e-06 -50.584 1.57732 14.8132 -19.5761 -0 -0 58.2285 -2.51369e-06 7.62279 -11.4492 -1.52183 -2.99038e-05 -70.3229 
1.6535 75.631 -0.4866 -19.2177 85.5879 1.65307 0 -0 0 -0.836085 -12.4914 17.8241 25.8378 -16.235 -1.05531e-05 53.1601 -18.7523 2.17301 9.2783e-07 68.5149 1.36233e-06 0.661997 6.57649 0.0379995 -16.2996 13.9616 -3.46993e-05 -46.4848 -9.40973 -8.2357 -180 -74.3636 180 0.485389 3.7165 0.0156995 3.98646 2.95384 -22.029 10.1595 -6.53672 -64.3644 -0 -0 42.524 2.51052e-07 -2.19579 5.2087 -0.199393 1.69632e-06 -47.3497 1.94193 14.6879 -18.1673 -0 -0 58.0733 4.67807e-06 6.95568 -10.618 -1.28779 5.93664e-06 -72.1415 
3.0676 75.372 -0.2707 -16.9396 85.7264 3.60872 0 -0 0 -0.631678 -12.7821 17.7918 25.7406 -16.4242 -0.000166991 53.1603 -18.9235 2.02853 6.8115e-07 69.1636 9.88063e-07 0.758598 6.54351 0.0433998 -16.269 14.0848 0.000104312 -46.5822 -8.69874 -7.9383 -180 -74.1284 180 0.269105 3.74733 0.00880025 3.91082 2.82496 -21.9699 9.72682 -6.566 -64.2083 -0 -0 44.2425 -1.92921e-06 -1.68426 5.40854 -0.158804 -2.27959e-06 -42.7989 2.34145 14.506 -16.8274 -0 -0 58.0137 2.67949e-06 6.29847 -9.74961 -1.07078 -4.76128e-07 -73.9832 
4.4753 75.109 -0.0505 -15.0548 85.8543 5.17529 0 -0 0 -0.371532 -13.0522 17.7612 25.6768 -16.5717 -0.00010014 53.1079 -19.0123 1.89269 9.99404e-07 69.786 1.43301e-06 0.836887 6.49735 0.0474993 -16.2684 14.1792 -1.96779e-05 -46.7046 -7.95739 -7.62179 -180 -73.9533 180 0.0463989 3.77936 0.00149997 3.80878 2.69099 -21.9276 9.389 -6.62613 -64.1087 -0 -0 46.2327 -3.15517e-06 -1.15515 5.21968 -0.1051 -1.72575e-08 -37.0841 2.7671 14.2591 -15.5668 -0 -0 58.0521 -8.00191e-06 5.67535 -8.81757 -0.872707 5.09027e-06 -75.8169 
5.8673 74.846 0.1763 -13.8191 85.9469 6.12448 0 -0 0 -0.034542 -13.2991 17.7198 25.648 -16.6742 0.000125867 52.9984 -19.0125 1.76492 -1.03886e-06 70.3774 -7.32526e-07 0.896709 6.43853 0.0504009 -16.2988 14.2474 -3.22834e-05 -46.8576 -7.1921 -7.28874 -180 -73.8415 180 -0.178402 3.81031 -0.00590004 3.68042 2.55469 -21.9025 9.16172 -6.70355 -64.0517 -0 -0 48.3866 2.41343e-07 -0.666998 4.65763 -0.0542 -6.40269e-07 -30.7599 3.22176 13.9424 -14.4229 -0 -0 58.2118 -9.30738e-07 5.1034 -7.79049 -0.693598 -4.82499e-06 -77.5934 
7.2377 74.59 0.4094 -13.3319 86.0326 6.35002 0 -0 0 0.377983 -13.5188 17.6717 25.6572 -16.7314 -1.14394e-06 52.8308 -18.9099 1.6495 1.07198e-06 70.9304 1.50484e-06 0.933708 6.37195 0.0520002 -16.3599 14.2836 7.36313e-05 -47.0453 -6.40517 -6.94465 -180 -73.7906 180 -0.400499 3.83904 -0.0134002 3.53299 2.41788 -21.8946 9.04228 -6.78553 -64.0128 -0 -0 50.6063 -1.81615e-07 -0.267007 3.77059 -0.0176 4.42438e-08 -24.5051 3.69564 13.5531 -13.4135 -0 -0 58.4988 2.89796e-06 4.59901 -6.63383 -0.532396 7.81514e-08 -79.2334 
8.5784 74.345 0.65 -13.7707 86.0965 5.69369 0 -0 0 0.873949 -13.7042 17.6063 25.7048 -16.7414 -0.000133753 52.6036 -18.701 1.54624 7.82701e-07 71.4333 1.08857e-06 0.944315 6.30203 0.0520007 -16.4477 14.2909 -8.56775e-05 -47.2772 -5.60384 -6.5893 -180 -73.8127 180 -0.613995 3.86368 -0.0206996 3.37411 2.2811 -21.9004 9.02575 -6.84862 -63.9755 -0 -0 52.7973 3.31428e-09 0.000800008 2.63775 0 -0 -19.0188 4.18437 13.0932 -12.5681 -0 -0 58.925 -2.58334e-06 4.16966 -5.31781 -0.387105 3.09649e-06 -80.6343 
9.8836 74.115 0.8986 -15.1575 86.1155 4.14796 0 -0 0 1.45182 -13.8512 17.5188 25.7893 -16.705 4.6359e-05 52.3246 -18.3796 1.4566 -0 71.8849 -0 0.924496 6.23403 0.0502998 -16.5569 14.2673 4.93314e-05 -47.5619 -4.79443 -6.22131 -180 -73.908 180 -0.812303 3.88312 -0.0275003 3.21433 2.14366 -21.9163 9.10165 -6.87378 -63.9202 -0 -0 54.8862 -9.79771e-10 0.113299 1.32186 0.00259999 1.21421e-08 -14.6828 4.68191 12.5722 -11.9069 -0 -0 59.4995 -6.31192e-06 3.81713 -3.82422 -0.254998 3.00711e-06 -81.6637 
